<svg id="_9023992_student_fill_icon" data-name="9023992_student_fill_icon" xmlns="http://www.w3.org/2000/svg" width="45" height="45" viewBox="0 0 45 45">
  <rect id="Rectangle_870" data-name="Rectangle 870" width="45" height="45" fill="none"/>
  <path id="Path_425" data-name="Path 425" d="M59.985,29.779,42.921,24.091a1.511,1.511,0,0,0-.889,0L24.986,29.779H24.95l-.178.089h-.018l-.178.107c0,.018-.018.018-.036.036l-.142.124h0l-.124.142c0,.018-.018.018-.018.036l-.107.16c0,.018,0,.018-.018.036l-.071.16h0l-.053.2v.053a.658.658,0,0,0-.018.213V45.35a1.422,1.422,0,0,0,2.844,0V33.1l5.972,1.991a11.234,11.234,0,0,0-1.706,5.99,11.376,11.376,0,0,0,5.333,9.634,17.082,17.082,0,0,0-8.265,6.648,1.44,1.44,0,0,0,.427,1.973,1.4,1.4,0,0,0,1.955-.409,14.22,14.22,0,0,1,23.854,0,1.422,1.422,0,0,0,1.191.64,1.333,1.333,0,0,0,.764-.231,1.44,1.44,0,0,0,.427-1.973,17.082,17.082,0,0,0-8.265-6.648,11.376,11.376,0,0,0,5.333-9.634,11.234,11.234,0,0,0-1.706-5.99l7.839-2.613a1.422,1.422,0,0,0,0-2.7ZM42.476,49.616a8.532,8.532,0,0,1-8.532-8.532A8.639,8.639,0,0,1,35.6,36.018l6.435,2.151a1.422,1.422,0,0,0,.889,0l6.435-2.151a8.639,8.639,0,0,1,1.653,5.066,8.532,8.532,0,0,1-8.532,8.532Z" transform="translate(-19.76 -19.829)" fill="#1b4242"/>
</svg>
